<svg width="370" height="87" viewBox="0 0 370 87" fill="none" xmlns="http://www.w3.org/2000/svg">
<path d="M4.06043e-05 5.34288C4.06043e-05 8.29371 2.39217 10.6858 5.343 10.6858C8.29384 10.6858 10.686 8.29371 10.686 5.34288C10.686 2.39204 8.29384 -8.16863e-05 5.343 -8.16863e-05C2.39217 -8.16863e-05 4.06043e-05 2.39204 4.06043e-05 5.34288ZM145.035 85.4873L144.536 86.3562L144.768 86.4891H145.035V85.4873ZM5.343 5.34288L4.84446 6.21183L144.536 86.3562L145.035 85.4873L145.533 84.6183L5.84154 4.47393L5.343 5.34288ZM145.035 85.4873V86.4891H370V85.4873V84.4855H145.035V85.4873Z" fill="black"/>
</svg>
