<svg width="345" height="83" viewBox="0 0 345 83" fill="none" xmlns="http://www.w3.org/2000/svg">
<path d="M334.313 5.34358C334.313 8.2948 336.705 10.6872 339.656 10.6872C342.608 10.6872 345 8.2948 345 5.34358C345 2.39236 342.608 -8.1697e-05 339.656 -8.1697e-05C336.705 -8.1697e-05 334.313 2.39236 334.313 5.34358ZM224.26 81.4907V82.4927H224.561L224.812 82.327L224.26 81.4907ZM339.656 5.34358L339.105 4.50731L223.708 80.6545L224.26 81.4907L224.812 82.327L340.208 6.17985L339.656 5.34358ZM224.26 81.4907V80.4888H0V81.4907V82.4927H224.26V81.4907Z" fill="black"/>
</svg>
