<svg width="281" height="74" viewBox="0 0 281 74" fill="none" xmlns="http://www.w3.org/2000/svg">
<path d="M4.06275e-05 5.34593C4.06275e-05 8.29846 2.39353 10.692 5.34606 10.692C8.29858 10.692 10.6921 8.29846 10.6921 5.34593C10.6921 2.39341 8.29858 -8.17331e-05 5.34606 -8.17331e-05C2.39353 -8.17331e-05 4.06275e-05 2.39341 4.06275e-05 5.34593ZM68.7902 72.5053L68.0616 73.1936L68.3582 73.5076H68.7902V72.5053ZM5.34606 5.34593L4.6174 6.03428L68.0616 73.1936L68.7902 72.5053L69.5189 71.8169L6.07471 4.65759L5.34606 5.34593ZM68.7902 72.5053V73.5076H281V72.5053V71.5029H68.7902V72.5053Z" fill="black"/>
</svg>
