<svg width="305" height="92" viewBox="0 0 305 92" fill="none" xmlns="http://www.w3.org/2000/svg">
<path d="M294.31 5.34493C294.31 8.2969 296.703 10.69 299.655 10.69C302.607 10.69 305 8.2969 305 5.34493C305 2.39296 302.607 -8.17178e-05 299.655 -8.17178e-05C296.703 -8.17178e-05 294.31 2.39296 294.31 5.34493ZM162.094 90.5311V91.5333H162.379L162.622 91.3832L162.094 90.5311ZM299.655 5.34493L299.127 4.49289L161.566 89.6791L162.094 90.5311L162.622 91.3832L300.183 6.19698L299.655 5.34493ZM162.094 90.5311V89.5289H0V90.5311V91.5333H162.094V90.5311Z" fill="black"/>
</svg>
